<svg class="wall-svg" viewBox="0 0 1400 1000" preserveAspectRatio="xMinYMid slice" xmlns="http://www.w3.org/2000/svg">
<g>
<polygon points="-51.96,-150.00 0.00,-120.00 0.00,-60.00 -51.96,-30.00 -103.92,-60.00 -103.92,-120.00" fill="#0A0A0A" fill-opacity="1.000" stroke="rgba(255,255,255,0.07)" stroke-width="1" vector-effect="non-scaling-stroke"></polygon>
<polygon points="51.96,-150.00 103.92,-120.00 103.92,-60.00 51.96,-30.00 0.00,-60.00 0.00,-120.00" fill="#0A0A0A" fill-opacity="1.000" stroke="rgba(255,255,255,0.07)" stroke-width="1" vector-effect="non-scaling-stroke"></polygon>
<polygon points="155.88,-150.00 207.85,-120.00 207.85,-60.00 155.88,-30.00 103.92,-60.00 103.92,-120.00" fill="#0A0A0A" fill-opacity="1.000" stroke="rgba(255,255,255,0.07)" stroke-width="1" vector-effect="non-scaling-stroke"></polygon>
<polygon points="259.81,-150.00 311.77,-120.00 311.77,-60.00 259.81,-30.00 207.85,-60.00 207.85,-120.00" fill="#0A0A0A" fill-opacity="1.000" stroke="rgba(255,255,255,0.07)" stroke-width="1" vector-effect="non-scaling-stroke"></polygon>
<polygon points="363.73,-150.00 415.69,-120.00 415.69,-60.00 363.73,-30.00 311.77,-60.00 311.77,-120.00" fill="#0A0A0A" fill-opacity="0.873" stroke="rgba(255,255,255,0.07)" stroke-width="1" vector-effect="non-scaling-stroke"></polygon>
<polygon points="467.65,-150.00 519.62,-120.00 519.62,-60.00 467.65,-30.00 415.69,-60.00 415.69,-120.00" fill="#0A0A0A" fill-opacity="0.646" stroke="rgba(255,255,255,0.07)" stroke-width="1" vector-effect="non-scaling-stroke"></polygon>
<polygon points="571.58,-150.00 623.54,-120.00 623.54,-60.00 571.58,-30.00 519.62,-60.00 519.62,-120.00" fill="#0A0A0A" fill-opacity="0.437" stroke="rgba(255,255,255,0.07)" stroke-width="1" vector-effect="non-scaling-stroke"></polygon>
<polygon points="675.50,-150.00 727.46,-120.00 727.46,-60.00 675.50,-30.00 623.54,-60.00 623.54,-120.00" fill="#0A0A0A" fill-opacity="0.250" stroke="rgba(255,255,255,0.07)" stroke-width="1" vector-effect="non-scaling-stroke"></polygon>
<polygon points="779.42,-150.00 831.38,-120.00 831.38,-60.00 779.42,-30.00 727.46,-60.00 727.46,-120.00" fill="#0A0A0A" fill-opacity="0.091" stroke="rgba(255,255,255,0.07)" stroke-width="1" vector-effect="non-scaling-stroke"></polygon>
<polygon points="883.35,-150.00 935.31,-120.00 935.31,-60.00 883.35,-30.00 831.38,-60.00 831.38,-120.00" fill="#0A0A0A" fill-opacity="0.055" stroke="rgba(255,255,255,0.07)" stroke-width="1" vector-effect="non-scaling-stroke"></polygon>
<polygon points="-103.92,-60.00 -51.96,-30.00 -51.96,30.00 -103.92,60.00 -155.88,30.00 -155.88,-30.00" fill="#0A0A0A" fill-opacity="1.000" stroke="rgba(255,255,255,0.07)" stroke-width="1" vector-effect="non-scaling-stroke"></polygon>
<polygon points="0.00,-60.00 51.96,-30.00 51.96,30.00 0.00,60.00 -51.96,30.00 -51.96,-30.00" fill="#0A0A0A" fill-opacity="1.000" stroke="rgba(255,255,255,0.07)" stroke-width="1" vector-effect="non-scaling-stroke"></polygon>
<polygon points="103.92,-60.00 155.88,-30.00 155.88,30.00 103.92,60.00 51.96,30.00 51.96,-30.00" fill="#0A0A0A" fill-opacity="1.000" stroke="rgba(255,255,255,0.07)" stroke-width="1" vector-effect="non-scaling-stroke"></polygon>
<polygon points="207.85,-60.00 259.81,-30.00 259.81,30.00 207.85,60.00 155.88,30.00 155.88,-30.00" fill="#0A0A0A" fill-opacity="1.000" stroke="rgba(255,255,255,0.07)" stroke-width="1" vector-effect="non-scaling-stroke"></polygon>
<polygon points="311.77,-60.00 363.73,-30.00 363.73,30.00 311.77,60.00 259.81,30.00 259.81,-30.00" fill="#0A0A0A" fill-opacity="0.991" stroke="rgba(255,255,255,0.07)" stroke-width="1" vector-effect="non-scaling-stroke"></polygon>
<polygon points="415.69,-60.00 467.65,-30.00 467.65,30.00 415.69,60.00 363.73,30.00 363.73,-30.00" fill="#0A0A0A" fill-opacity="0.758" stroke="rgba(255,255,255,0.07)" stroke-width="1" vector-effect="non-scaling-stroke"></polygon>
<polygon points="519.62,-60.00 571.58,-30.00 571.58,30.00 519.62,60.00 467.65,30.00 467.65,-30.00" fill="#0A0A0A" fill-opacity="0.540" stroke="rgba(255,255,255,0.07)" stroke-width="1" vector-effect="non-scaling-stroke"></polygon>
<polygon points="623.54,-60.00 675.50,-30.00 675.50,30.00 623.54,60.00 571.58,30.00 571.58,-30.00" fill="#0A0A0A" fill-opacity="0.340" stroke="rgba(255,255,255,0.07)" stroke-width="1" vector-effect="non-scaling-stroke"></polygon>
<polygon points="727.46,-60.00 779.42,-30.00 779.42,30.00 727.46,60.00 675.50,30.00 675.50,-30.00" fill="#0A0A0A" fill-opacity="0.166" stroke="rgba(255,255,255,0.07)" stroke-width="1" vector-effect="non-scaling-stroke"></polygon>
<polygon points="831.38,-60.00 883.35,-30.00 883.35,30.00 831.38,60.00 779.42,30.00 779.42,-30.00" fill="#0A0A0A" fill-opacity="0.029" stroke="rgba(255,255,255,0.07)" stroke-width="1" vector-effect="non-scaling-stroke"></polygon>
<polygon points="-51.96,30.00 0.00,60.00 0.00,120.00 -51.96,150.00 -103.92,120.00 -103.92,60.00" fill="#0A0A0A" fill-opacity="1.000" stroke="rgba(255,255,255,0.07)" stroke-width="1" vector-effect="non-scaling-stroke"></polygon>
<polygon points="51.96,30.00 103.92,60.00 103.92,120.00 51.96,150.00 0.00,120.00 0.00,60.00" fill="#0A0A0A" fill-opacity="1.000" stroke="rgba(255,255,255,0.07)" stroke-width="1" vector-effect="non-scaling-stroke"></polygon>
<polygon points="155.88,30.00 207.85,60.00 207.85,120.00 155.88,150.00 103.92,120.00 103.92,60.00" fill="#0A0A0A" fill-opacity="1.000" stroke="rgba(255,255,255,0.07)" stroke-width="1" vector-effect="non-scaling-stroke"></polygon>
<polygon points="259.81,30.00 311.77,60.00 311.77,120.00 259.81,150.00 207.85,120.00 207.85,60.00" fill="#0A0A0A" fill-opacity="1.000" stroke="rgba(255,255,255,0.07)" stroke-width="1" vector-effect="non-scaling-stroke"></polygon>
<polygon points="363.73,30.00 415.69,60.00 415.69,120.00 363.73,150.00 311.77,120.00 311.77,60.00" fill="#0A0A0A" fill-opacity="0.873" stroke="rgba(255,255,255,0.07)" stroke-width="1" vector-effect="non-scaling-stroke"></polygon>
<polygon points="467.65,30.00 519.62,60.00 519.62,120.00 467.65,150.00 415.69,120.00 415.69,60.00" fill="#0A0A0A" fill-opacity="0.646" stroke="rgba(255,255,255,0.07)" stroke-width="1" vector-effect="non-scaling-stroke"></polygon>
<polygon points="571.58,30.00 623.54,60.00 623.54,120.00 571.58,150.00 519.62,120.00 519.62,60.00" fill="#0A0A0A" fill-opacity="0.437" stroke="rgba(255,255,255,0.07)" stroke-width="1" vector-effect="non-scaling-stroke"></polygon>
<polygon points="675.50,30.00 727.46,60.00 727.46,120.00 675.50,150.00 623.54,120.00 623.54,60.00" fill="#0A0A0A" fill-opacity="0.250" stroke="rgba(255,255,255,0.07)" stroke-width="1" vector-effect="non-scaling-stroke"></polygon>
<polygon points="779.42,30.00 831.38,60.00 831.38,120.00 779.42,150.00 727.46,120.00 727.46,60.00" fill="#0A0A0A" fill-opacity="0.091" stroke="rgba(255,255,255,0.07)" stroke-width="1" vector-effect="non-scaling-stroke"></polygon>
<polygon points="883.35,30.00 935.31,60.00 935.31,120.00 883.35,150.00 831.38,120.00 831.38,60.00" fill="#0A0A0A" fill-opacity="0.055" stroke="rgba(255,255,255,0.07)" stroke-width="1" vector-effect="non-scaling-stroke"></polygon>
<polygon points="-103.92,120.00 -51.96,150.00 -51.96,210.00 -103.92,240.00 -155.88,210.00 -155.88,150.00" fill="#0A0A0A" fill-opacity="1.000" stroke="rgba(255,255,255,0.07)" stroke-width="1" vector-effect="non-scaling-stroke"></polygon>
<polygon points="0.00,120.00 51.96,150.00 51.96,210.00 0.00,240.00 -51.96,210.00 -51.96,150.00" fill="#0A0A0A" fill-opacity="1.000" stroke="rgba(255,255,255,0.07)" stroke-width="1" vector-effect="non-scaling-stroke"></polygon>
<polygon points="103.92,120.00 155.88,150.00 155.88,210.00 103.92,240.00 51.96,210.00 51.96,150.00" fill="#0A0A0A" fill-opacity="1.000" stroke="rgba(255,255,255,0.07)" stroke-width="1" vector-effect="non-scaling-stroke"></polygon>
<polygon points="207.85,120.00 259.81,150.00 259.81,210.00 207.85,240.00 155.88,210.00 155.88,150.00" fill="#0A0A0A" fill-opacity="1.000" stroke="rgba(255,255,255,0.07)" stroke-width="1" vector-effect="non-scaling-stroke"></polygon>
<polygon points="311.77,120.00 363.73,150.00 363.73,210.00 311.77,240.00 259.81,210.00 259.81,150.00" fill="#0A0A0A" fill-opacity="0.991" stroke="rgba(255,255,255,0.07)" stroke-width="1" vector-effect="non-scaling-stroke"></polygon>
<polygon points="415.69,120.00 467.65,150.00 467.65,210.00 415.69,240.00 363.73,210.00 363.73,150.00" fill="#0A0A0A" fill-opacity="0.758" stroke="rgba(255,255,255,0.07)" stroke-width="1" vector-effect="non-scaling-stroke"></polygon>
<polygon points="519.62,120.00 571.58,150.00 571.58,210.00 519.62,240.00 467.65,210.00 467.65,150.00" fill="#0A0A0A" fill-opacity="0.540" stroke="rgba(255,255,255,0.07)" stroke-width="1" vector-effect="non-scaling-stroke"></polygon>
<polygon points="623.54,120.00 675.50,150.00 675.50,210.00 623.54,240.00 571.58,210.00 571.58,150.00" fill="#0A0A0A" fill-opacity="0.340" stroke="rgba(255,255,255,0.07)" stroke-width="1" vector-effect="non-scaling-stroke"></polygon>
<polygon points="727.46,120.00 779.42,150.00 779.42,210.00 727.46,240.00 675.50,210.00 675.50,150.00" fill="#0A0A0A" fill-opacity="0.166" stroke="rgba(255,255,255,0.07)" stroke-width="1" vector-effect="non-scaling-stroke"></polygon>
<polygon points="831.38,120.00 883.35,150.00 883.35,210.00 831.38,240.00 779.42,210.00 779.42,150.00" fill="#0A0A0A" fill-opacity="0.029" stroke="rgba(255,255,255,0.07)" stroke-width="1" vector-effect="non-scaling-stroke"></polygon>
<polygon points="935.31,120.00 987.27,150.00 987.27,210.00 935.31,240.00 883.35,210.00 883.35,150.00" fill="#0A0A0A" fill-opacity="0.047" stroke="rgba(255,255,255,0.07)" stroke-width="1" vector-effect="non-scaling-stroke"></polygon>
<polygon points="1039.23,120.00 1091.19,150.00 1091.19,210.00 1039.23,240.00 987.27,210.00 987.27,150.00" fill="#0A0A0A" fill-opacity="0.015" stroke="rgba(255,255,255,0.07)" stroke-width="1" vector-effect="non-scaling-stroke"></polygon>
<polygon points="-51.96,210.00 0.00,240.00 0.00,300.00 -51.96,330.00 -103.92,300.00 -103.92,240.00" fill="#0A0A0A" fill-opacity="1.000" stroke="rgba(255,255,255,0.07)" stroke-width="1" vector-effect="non-scaling-stroke"></polygon>
<polygon points="51.96,210.00 103.92,240.00 103.92,300.00 51.96,330.00 0.00,300.00 0.00,240.00" fill="#0A0A0A" fill-opacity="1.000" stroke="rgba(255,255,255,0.07)" stroke-width="1" vector-effect="non-scaling-stroke"></polygon>
<polygon points="155.88,210.00 207.85,240.00 207.85,300.00 155.88,330.00 103.92,300.00 103.92,240.00" fill="#0A0A0A" fill-opacity="1.000" stroke="rgba(255,255,255,0.07)" stroke-width="1" vector-effect="non-scaling-stroke"></polygon>
<polygon points="259.81,210.00 311.77,240.00 311.77,300.00 259.81,330.00 207.85,300.00 207.85,240.00" fill="#0A0A0A" fill-opacity="1.000" stroke="rgba(255,255,255,0.07)" stroke-width="1" vector-effect="non-scaling-stroke"></polygon>
<polygon points="363.73,210.00 415.69,240.00 415.69,300.00 363.73,330.00 311.77,300.00 311.77,240.00" fill="#0A0A0A" fill-opacity="0.873" stroke="rgba(255,255,255,0.07)" stroke-width="1" vector-effect="non-scaling-stroke"></polygon>
<polygon points="467.65,210.00 519.62,240.00 519.62,300.00 467.65,330.00 415.69,300.00 415.69,240.00" fill="#0A0A0A" fill-opacity="0.646" stroke="rgba(255,255,255,0.07)" stroke-width="1" vector-effect="non-scaling-stroke"></polygon>
<polygon points="571.58,210.00 623.54,240.00 623.54,300.00 571.58,330.00 519.62,300.00 519.62,240.00" fill="#0A0A0A" fill-opacity="0.437" stroke="rgba(255,255,255,0.07)" stroke-width="1" vector-effect="non-scaling-stroke"></polygon>
<polygon points="675.50,210.00 727.46,240.00 727.46,300.00 675.50,330.00 623.54,300.00 623.54,240.00" fill="#0A0A0A" fill-opacity="0.250" stroke="rgba(255,255,255,0.07)" stroke-width="1" vector-effect="non-scaling-stroke"></polygon>
<polygon points="779.42,210.00 831.38,240.00 831.38,300.00 779.42,330.00 727.46,300.00 727.46,240.00" fill="#0A0A0A" fill-opacity="0.091" stroke="rgba(255,255,255,0.07)" stroke-width="1" vector-effect="non-scaling-stroke"></polygon>
<polygon points="987.27,210.00 1039.23,240.00 1039.23,300.00 987.27,330.00 935.31,300.00 935.31,240.00" fill="#0A0A0A" fill-opacity="0.032" stroke="rgba(255,255,255,0.07)" stroke-width="1" vector-effect="non-scaling-stroke"></polygon>
<polygon points="-103.92,300.00 -51.96,330.00 -51.96,390.00 -103.92,420.00 -155.88,390.00 -155.88,330.00" fill="#0A0A0A" fill-opacity="1.000" stroke="rgba(255,255,255,0.07)" stroke-width="1" vector-effect="non-scaling-stroke"></polygon>
<polygon points="0.00,300.00 51.96,330.00 51.96,390.00 0.00,420.00 -51.96,390.00 -51.96,330.00" fill="#0A0A0A" fill-opacity="1.000" stroke="rgba(255,255,255,0.07)" stroke-width="1" vector-effect="non-scaling-stroke"></polygon>
<polygon points="103.92,300.00 155.88,330.00 155.88,390.00 103.92,420.00 51.96,390.00 51.96,330.00" fill="#0A0A0A" fill-opacity="1.000" stroke="rgba(255,255,255,0.07)" stroke-width="1" vector-effect="non-scaling-stroke"></polygon>
<polygon points="207.85,300.00 259.81,330.00 259.81,390.00 207.85,420.00 155.88,390.00 155.88,330.00" fill="#0A0A0A" fill-opacity="1.000" stroke="rgba(255,255,255,0.07)" stroke-width="1" vector-effect="non-scaling-stroke"></polygon>
<polygon points="311.77,300.00 363.73,330.00 363.73,390.00 311.77,420.00 259.81,390.00 259.81,330.00" fill="#0A0A0A" fill-opacity="0.991" stroke="rgba(255,255,255,0.07)" stroke-width="1" vector-effect="non-scaling-stroke"></polygon>
<polygon points="415.69,300.00 467.65,330.00 467.65,390.00 415.69,420.00 363.73,390.00 363.73,330.00" fill="#0A0A0A" fill-opacity="0.758" stroke="rgba(255,255,255,0.07)" stroke-width="1" vector-effect="non-scaling-stroke"></polygon>
<polygon points="519.62,300.00 571.58,330.00 571.58,390.00 519.62,420.00 467.65,390.00 467.65,330.00" fill="#0A0A0A" fill-opacity="0.540" stroke="rgba(255,255,255,0.07)" stroke-width="1" vector-effect="non-scaling-stroke"></polygon>
<polygon points="623.54,300.00 675.50,330.00 675.50,390.00 623.54,420.00 571.58,390.00 571.58,330.00" fill="#0A0A0A" fill-opacity="0.340" stroke="rgba(255,255,255,0.07)" stroke-width="1" vector-effect="non-scaling-stroke"></polygon>
<polygon points="727.46,300.00 779.42,330.00 779.42,390.00 727.46,420.00 675.50,390.00 675.50,330.00" fill="#0A0A0A" fill-opacity="0.166" stroke="rgba(255,255,255,0.07)" stroke-width="1" vector-effect="non-scaling-stroke"></polygon>
<polygon points="831.38,300.00 883.35,330.00 883.35,390.00 831.38,420.00 779.42,390.00 779.42,330.00" fill="#0A0A0A" fill-opacity="0.029" stroke="rgba(255,255,255,0.07)" stroke-width="1" vector-effect="non-scaling-stroke"></polygon>
<polygon points="-51.96,390.00 0.00,420.00 0.00,480.00 -51.96,510.00 -103.92,480.00 -103.92,420.00" fill="#0A0A0A" fill-opacity="1.000" stroke="rgba(255,255,255,0.07)" stroke-width="1" vector-effect="non-scaling-stroke"></polygon>
<polygon points="51.96,390.00 103.92,420.00 103.92,480.00 51.96,510.00 0.00,480.00 0.00,420.00" fill="#0A0A0A" fill-opacity="1.000" stroke="rgba(255,255,255,0.07)" stroke-width="1" vector-effect="non-scaling-stroke"></polygon>
<polygon points="155.88,390.00 207.85,420.00 207.85,480.00 155.88,510.00 103.92,480.00 103.92,420.00" fill="#0A0A0A" fill-opacity="1.000" stroke="rgba(255,255,255,0.07)" stroke-width="1" vector-effect="non-scaling-stroke"></polygon>
<polygon points="259.81,390.00 311.77,420.00 311.77,480.00 259.81,510.00 207.85,480.00 207.85,420.00" fill="#0A0A0A" fill-opacity="1.000" stroke="rgba(255,255,255,0.07)" stroke-width="1" vector-effect="non-scaling-stroke"></polygon>
<polygon points="363.73,390.00 415.69,420.00 415.69,480.00 363.73,510.00 311.77,480.00 311.77,420.00" fill="#0A0A0A" fill-opacity="0.873" stroke="rgba(255,255,255,0.07)" stroke-width="1" vector-effect="non-scaling-stroke"></polygon>
<polygon points="467.65,390.00 519.62,420.00 519.62,480.00 467.65,510.00 415.69,480.00 415.69,420.00" fill="#0A0A0A" fill-opacity="0.646" stroke="rgba(255,255,255,0.07)" stroke-width="1" vector-effect="non-scaling-stroke"></polygon>
<polygon points="571.58,390.00 623.54,420.00 623.54,480.00 571.58,510.00 519.62,480.00 519.62,420.00" fill="#0A0A0A" fill-opacity="0.437" stroke="rgba(255,255,255,0.07)" stroke-width="1" vector-effect="non-scaling-stroke"></polygon>
<polygon points="675.50,390.00 727.46,420.00 727.46,480.00 675.50,510.00 623.54,480.00 623.54,420.00" fill="#0A0A0A" fill-opacity="0.250" stroke="rgba(255,255,255,0.07)" stroke-width="1" vector-effect="non-scaling-stroke"></polygon>
<polygon points="779.42,390.00 831.38,420.00 831.38,480.00 779.42,510.00 727.46,480.00 727.46,420.00" fill="#0A0A0A" fill-opacity="0.091" stroke="rgba(255,255,255,0.07)" stroke-width="1" vector-effect="non-scaling-stroke"></polygon>
<polygon points="987.27,390.00 1039.23,420.00 1039.23,480.00 987.27,510.00 935.31,480.00 935.31,420.00" fill="#0A0A0A" fill-opacity="0.028" stroke="rgba(255,255,255,0.07)" stroke-width="1" vector-effect="non-scaling-stroke"></polygon>
<polygon points="-103.92,480.00 -51.96,510.00 -51.96,570.00 -103.92,600.00 -155.88,570.00 -155.88,510.00" fill="#0A0A0A" fill-opacity="1.000" stroke="rgba(255,255,255,0.07)" stroke-width="1" vector-effect="non-scaling-stroke"></polygon>
<polygon points="0.00,480.00 51.96,510.00 51.96,570.00 0.00,600.00 -51.96,570.00 -51.96,510.00" fill="#0A0A0A" fill-opacity="1.000" stroke="rgba(255,255,255,0.07)" stroke-width="1" vector-effect="non-scaling-stroke"></polygon>
<polygon points="103.92,480.00 155.88,510.00 155.88,570.00 103.92,600.00 51.96,570.00 51.96,510.00" fill="#0A0A0A" fill-opacity="1.000" stroke="rgba(255,255,255,0.07)" stroke-width="1" vector-effect="non-scaling-stroke"></polygon>
<polygon points="207.85,480.00 259.81,510.00 259.81,570.00 207.85,600.00 155.88,570.00 155.88,510.00" fill="#0A0A0A" fill-opacity="1.000" stroke="rgba(255,255,255,0.07)" stroke-width="1" vector-effect="non-scaling-stroke"></polygon>
<polygon points="311.77,480.00 363.73,510.00 363.73,570.00 311.77,600.00 259.81,570.00 259.81,510.00" fill="#0A0A0A" fill-opacity="0.991" stroke="rgba(255,255,255,0.07)" stroke-width="1" vector-effect="non-scaling-stroke"></polygon>
<polygon points="415.69,480.00 467.65,510.00 467.65,570.00 415.69,600.00 363.73,570.00 363.73,510.00" fill="#0A0A0A" fill-opacity="0.758" stroke="rgba(255,255,255,0.07)" stroke-width="1" vector-effect="non-scaling-stroke"></polygon>
<polygon points="519.62,480.00 571.58,510.00 571.58,570.00 519.62,600.00 467.65,570.00 467.65,510.00" fill="#0A0A0A" fill-opacity="0.540" stroke="rgba(255,255,255,0.07)" stroke-width="1" vector-effect="non-scaling-stroke"></polygon>
<polygon points="623.54,480.00 675.50,510.00 675.50,570.00 623.54,600.00 571.58,570.00 571.58,510.00" fill="#0A0A0A" fill-opacity="0.340" stroke="rgba(255,255,255,0.07)" stroke-width="1" vector-effect="non-scaling-stroke"></polygon>
<polygon points="727.46,480.00 779.42,510.00 779.42,570.00 727.46,600.00 675.50,570.00 675.50,510.00" fill="#0A0A0A" fill-opacity="0.166" stroke="rgba(255,255,255,0.07)" stroke-width="1" vector-effect="non-scaling-stroke"></polygon>
<polygon points="831.38,480.00 883.35,510.00 883.35,570.00 831.38,600.00 779.42,570.00 779.42,510.00" fill="#0A0A0A" fill-opacity="0.029" stroke="rgba(255,255,255,0.07)" stroke-width="1" vector-effect="non-scaling-stroke"></polygon>
<polygon points="935.31,480.00 987.27,510.00 987.27,570.00 935.31,600.00 883.35,570.00 883.35,510.00" fill="#0A0A0A" fill-opacity="0.060" stroke="rgba(255,255,255,0.07)" stroke-width="1" vector-effect="non-scaling-stroke"></polygon>
<polygon points="-51.96,570.00 0.00,600.00 0.00,660.00 -51.96,690.00 -103.92,660.00 -103.92,600.00" fill="#0A0A0A" fill-opacity="1.000" stroke="rgba(255,255,255,0.07)" stroke-width="1" vector-effect="non-scaling-stroke"></polygon>
<polygon points="51.96,570.00 103.92,600.00 103.92,660.00 51.96,690.00 0.00,660.00 0.00,600.00" fill="#0A0A0A" fill-opacity="1.000" stroke="rgba(255,255,255,0.07)" stroke-width="1" vector-effect="non-scaling-stroke"></polygon>
<polygon points="155.88,570.00 207.85,600.00 207.85,660.00 155.88,690.00 103.92,660.00 103.92,600.00" fill="#0A0A0A" fill-opacity="1.000" stroke="rgba(255,255,255,0.07)" stroke-width="1" vector-effect="non-scaling-stroke"></polygon>
<polygon points="259.81,570.00 311.77,600.00 311.77,660.00 259.81,690.00 207.85,660.00 207.85,600.00" fill="#0A0A0A" fill-opacity="1.000" stroke="rgba(255,255,255,0.07)" stroke-width="1" vector-effect="non-scaling-stroke"></polygon>
<polygon points="363.73,570.00 415.69,600.00 415.69,660.00 363.73,690.00 311.77,660.00 311.77,600.00" fill="#0A0A0A" fill-opacity="0.873" stroke="rgba(255,255,255,0.07)" stroke-width="1" vector-effect="non-scaling-stroke"></polygon>
<polygon points="467.65,570.00 519.62,600.00 519.62,660.00 467.65,690.00 415.69,660.00 415.69,600.00" fill="#0A0A0A" fill-opacity="0.646" stroke="rgba(255,255,255,0.07)" stroke-width="1" vector-effect="non-scaling-stroke"></polygon>
<polygon points="571.58,570.00 623.54,600.00 623.54,660.00 571.58,690.00 519.62,660.00 519.62,600.00" fill="#0A0A0A" fill-opacity="0.437" stroke="rgba(255,255,255,0.07)" stroke-width="1" vector-effect="non-scaling-stroke"></polygon>
<polygon points="675.50,570.00 727.46,600.00 727.46,660.00 675.50,690.00 623.54,660.00 623.54,600.00" fill="#0A0A0A" fill-opacity="0.250" stroke="rgba(255,255,255,0.07)" stroke-width="1" vector-effect="non-scaling-stroke"></polygon>
<polygon points="779.42,570.00 831.38,600.00 831.38,660.00 779.42,690.00 727.46,660.00 727.46,600.00" fill="#0A0A0A" fill-opacity="0.091" stroke="rgba(255,255,255,0.07)" stroke-width="1" vector-effect="non-scaling-stroke"></polygon>
<polygon points="883.35,570.00 935.31,600.00 935.31,660.00 883.35,690.00 831.38,660.00 831.38,600.00" fill="#0A0A0A" fill-opacity="0.089" stroke="rgba(255,255,255,0.07)" stroke-width="1" vector-effect="non-scaling-stroke"></polygon>
<polygon points="987.27,570.00 1039.23,600.00 1039.23,660.00 987.27,690.00 935.31,660.00 935.31,600.00" fill="#0A0A0A" fill-opacity="0.034" stroke="rgba(255,255,255,0.07)" stroke-width="1" vector-effect="non-scaling-stroke"></polygon>
<polygon points="-103.92,660.00 -51.96,690.00 -51.96,750.00 -103.92,780.00 -155.88,750.00 -155.88,690.00" fill="#0A0A0A" fill-opacity="1.000" stroke="rgba(255,255,255,0.07)" stroke-width="1" vector-effect="non-scaling-stroke"></polygon>
<polygon points="0.00,660.00 51.96,690.00 51.96,750.00 0.00,780.00 -51.96,750.00 -51.96,690.00" fill="#0A0A0A" fill-opacity="1.000" stroke="rgba(255,255,255,0.07)" stroke-width="1" vector-effect="non-scaling-stroke"></polygon>
<polygon points="103.92,660.00 155.88,690.00 155.88,750.00 103.92,780.00 51.96,750.00 51.96,690.00" fill="#0A0A0A" fill-opacity="1.000" stroke="rgba(255,255,255,0.07)" stroke-width="1" vector-effect="non-scaling-stroke"></polygon>
<polygon points="207.85,660.00 259.81,690.00 259.81,750.00 207.85,780.00 155.88,750.00 155.88,690.00" fill="#0A0A0A" fill-opacity="1.000" stroke="rgba(255,255,255,0.07)" stroke-width="1" vector-effect="non-scaling-stroke"></polygon>
<polygon points="311.77,660.00 363.73,690.00 363.73,750.00 311.77,780.00 259.81,750.00 259.81,690.00" fill="#0A0A0A" fill-opacity="0.991" stroke="rgba(255,255,255,0.07)" stroke-width="1" vector-effect="non-scaling-stroke"></polygon>
<polygon points="415.69,660.00 467.65,690.00 467.65,750.00 415.69,780.00 363.73,750.00 363.73,690.00" fill="#0A0A0A" fill-opacity="0.758" stroke="rgba(255,255,255,0.07)" stroke-width="1" vector-effect="non-scaling-stroke"></polygon>
<polygon points="519.62,660.00 571.58,690.00 571.58,750.00 519.62,780.00 467.65,750.00 467.65,690.00" fill="#0A0A0A" fill-opacity="0.540" stroke="rgba(255,255,255,0.07)" stroke-width="1" vector-effect="non-scaling-stroke"></polygon>
<polygon points="623.54,660.00 675.50,690.00 675.50,750.00 623.54,780.00 571.58,750.00 571.58,690.00" fill="#0A0A0A" fill-opacity="0.340" stroke="rgba(255,255,255,0.07)" stroke-width="1" vector-effect="non-scaling-stroke"></polygon>
<polygon points="727.46,660.00 779.42,690.00 779.42,750.00 727.46,780.00 675.50,750.00 675.50,690.00" fill="#0A0A0A" fill-opacity="0.166" stroke="rgba(255,255,255,0.07)" stroke-width="1" vector-effect="non-scaling-stroke"></polygon>
<polygon points="831.38,660.00 883.35,690.00 883.35,750.00 831.38,780.00 779.42,750.00 779.42,690.00" fill="#0A0A0A" fill-opacity="0.029" stroke="rgba(255,255,255,0.07)" stroke-width="1" vector-effect="non-scaling-stroke"></polygon>
<polygon points="935.31,660.00 987.27,690.00 987.27,750.00 935.31,780.00 883.35,750.00 883.35,690.00" fill="#0A0A0A" fill-opacity="0.069" stroke="rgba(255,255,255,0.07)" stroke-width="1" vector-effect="non-scaling-stroke"></polygon>
<polygon points="-51.96,750.00 0.00,780.00 0.00,840.00 -51.96,870.00 -103.92,840.00 -103.92,780.00" fill="#0A0A0A" fill-opacity="1.000" stroke="rgba(255,255,255,0.07)" stroke-width="1" vector-effect="non-scaling-stroke"></polygon>
<polygon points="51.96,750.00 103.92,780.00 103.92,840.00 51.96,870.00 0.00,840.00 0.00,780.00" fill="#0A0A0A" fill-opacity="1.000" stroke="rgba(255,255,255,0.07)" stroke-width="1" vector-effect="non-scaling-stroke"></polygon>
<polygon points="155.88,750.00 207.85,780.00 207.85,840.00 155.88,870.00 103.92,840.00 103.92,780.00" fill="#0A0A0A" fill-opacity="1.000" stroke="rgba(255,255,255,0.07)" stroke-width="1" vector-effect="non-scaling-stroke"></polygon>
<polygon points="259.81,750.00 311.77,780.00 311.77,840.00 259.81,870.00 207.85,840.00 207.85,780.00" fill="#0A0A0A" fill-opacity="1.000" stroke="rgba(255,255,255,0.07)" stroke-width="1" vector-effect="non-scaling-stroke"></polygon>
<polygon points="363.73,750.00 415.69,780.00 415.69,840.00 363.73,870.00 311.77,840.00 311.77,780.00" fill="#0A0A0A" fill-opacity="0.873" stroke="rgba(255,255,255,0.07)" stroke-width="1" vector-effect="non-scaling-stroke"></polygon>
<polygon points="467.65,750.00 519.62,780.00 519.62,840.00 467.65,870.00 415.69,840.00 415.69,780.00" fill="#0A0A0A" fill-opacity="0.646" stroke="rgba(255,255,255,0.07)" stroke-width="1" vector-effect="non-scaling-stroke"></polygon>
<polygon points="571.58,750.00 623.54,780.00 623.54,840.00 571.58,870.00 519.62,840.00 519.62,780.00" fill="#0A0A0A" fill-opacity="0.437" stroke="rgba(255,255,255,0.07)" stroke-width="1" vector-effect="non-scaling-stroke"></polygon>
<polygon points="675.50,750.00 727.46,780.00 727.46,840.00 675.50,870.00 623.54,840.00 623.54,780.00" fill="#0A0A0A" fill-opacity="0.250" stroke="rgba(255,255,255,0.07)" stroke-width="1" vector-effect="non-scaling-stroke"></polygon>
<polygon points="779.42,750.00 831.38,780.00 831.38,840.00 779.42,870.00 727.46,840.00 727.46,780.00" fill="#0A0A0A" fill-opacity="0.091" stroke="rgba(255,255,255,0.07)" stroke-width="1" vector-effect="non-scaling-stroke"></polygon>
<polygon points="-103.92,840.00 -51.96,870.00 -51.96,930.00 -103.92,960.00 -155.88,930.00 -155.88,870.00" fill="#0A0A0A" fill-opacity="1.000" stroke="rgba(255,255,255,0.07)" stroke-width="1" vector-effect="non-scaling-stroke"></polygon>
<polygon points="0.00,840.00 51.96,870.00 51.96,930.00 0.00,960.00 -51.96,930.00 -51.96,870.00" fill="#0A0A0A" fill-opacity="1.000" stroke="rgba(255,255,255,0.07)" stroke-width="1" vector-effect="non-scaling-stroke"></polygon>
<polygon points="103.92,840.00 155.88,870.00 155.88,930.00 103.92,960.00 51.96,930.00 51.96,870.00" fill="#0A0A0A" fill-opacity="1.000" stroke="rgba(255,255,255,0.07)" stroke-width="1" vector-effect="non-scaling-stroke"></polygon>
<polygon points="207.85,840.00 259.81,870.00 259.81,930.00 207.85,960.00 155.88,930.00 155.88,870.00" fill="#0A0A0A" fill-opacity="1.000" stroke="rgba(255,255,255,0.07)" stroke-width="1" vector-effect="non-scaling-stroke"></polygon>
<polygon points="311.77,840.00 363.73,870.00 363.73,930.00 311.77,960.00 259.81,930.00 259.81,870.00" fill="#0A0A0A" fill-opacity="0.991" stroke="rgba(255,255,255,0.07)" stroke-width="1" vector-effect="non-scaling-stroke"></polygon>
<polygon points="415.69,840.00 467.65,870.00 467.65,930.00 415.69,960.00 363.73,930.00 363.73,870.00" fill="#0A0A0A" fill-opacity="0.758" stroke="rgba(255,255,255,0.07)" stroke-width="1" vector-effect="non-scaling-stroke"></polygon>
<polygon points="519.62,840.00 571.58,870.00 571.58,930.00 519.62,960.00 467.65,930.00 467.65,870.00" fill="#0A0A0A" fill-opacity="0.540" stroke="rgba(255,255,255,0.07)" stroke-width="1" vector-effect="non-scaling-stroke"></polygon>
<polygon points="623.54,840.00 675.50,870.00 675.50,930.00 623.54,960.00 571.58,930.00 571.58,870.00" fill="#0A0A0A" fill-opacity="0.340" stroke="rgba(255,255,255,0.07)" stroke-width="1" vector-effect="non-scaling-stroke"></polygon>
<polygon points="727.46,840.00 779.42,870.00 779.42,930.00 727.46,960.00 675.50,930.00 675.50,870.00" fill="#0A0A0A" fill-opacity="0.166" stroke="rgba(255,255,255,0.07)" stroke-width="1" vector-effect="non-scaling-stroke"></polygon>
<polygon points="831.38,840.00 883.35,870.00 883.35,930.00 831.38,960.00 779.42,930.00 779.42,870.00" fill="#0A0A0A" fill-opacity="0.029" stroke="rgba(255,255,255,0.07)" stroke-width="1" vector-effect="non-scaling-stroke"></polygon>
<polygon points="-51.96,930.00 0.00,960.00 0.00,1020.00 -51.96,1050.00 -103.92,1020.00 -103.92,960.00" fill="#0A0A0A" fill-opacity="1.000" stroke="rgba(255,255,255,0.07)" stroke-width="1" vector-effect="non-scaling-stroke"></polygon>
<polygon points="51.96,930.00 103.92,960.00 103.92,1020.00 51.96,1050.00 0.00,1020.00 0.00,960.00" fill="#0A0A0A" fill-opacity="1.000" stroke="rgba(255,255,255,0.07)" stroke-width="1" vector-effect="non-scaling-stroke"></polygon>
<polygon points="155.88,930.00 207.85,960.00 207.85,1020.00 155.88,1050.00 103.92,1020.00 103.92,960.00" fill="#0A0A0A" fill-opacity="1.000" stroke="rgba(255,255,255,0.07)" stroke-width="1" vector-effect="non-scaling-stroke"></polygon>
<polygon points="259.81,930.00 311.77,960.00 311.77,1020.00 259.81,1050.00 207.85,1020.00 207.85,960.00" fill="#0A0A0A" fill-opacity="1.000" stroke="rgba(255,255,255,0.07)" stroke-width="1" vector-effect="non-scaling-stroke"></polygon>
<polygon points="363.73,930.00 415.69,960.00 415.69,1020.00 363.73,1050.00 311.77,1020.00 311.77,960.00" fill="#0A0A0A" fill-opacity="0.873" stroke="rgba(255,255,255,0.07)" stroke-width="1" vector-effect="non-scaling-stroke"></polygon>
<polygon points="467.65,930.00 519.62,960.00 519.62,1020.00 467.65,1050.00 415.69,1020.00 415.69,960.00" fill="#0A0A0A" fill-opacity="0.646" stroke="rgba(255,255,255,0.07)" stroke-width="1" vector-effect="non-scaling-stroke"></polygon>
<polygon points="571.58,930.00 623.54,960.00 623.54,1020.00 571.58,1050.00 519.62,1020.00 519.62,960.00" fill="#0A0A0A" fill-opacity="0.437" stroke="rgba(255,255,255,0.07)" stroke-width="1" vector-effect="non-scaling-stroke"></polygon>
<polygon points="675.50,930.00 727.46,960.00 727.46,1020.00 675.50,1050.00 623.54,1020.00 623.54,960.00" fill="#0A0A0A" fill-opacity="0.250" stroke="rgba(255,255,255,0.07)" stroke-width="1" vector-effect="non-scaling-stroke"></polygon>
<polygon points="779.42,930.00 831.38,960.00 831.38,1020.00 779.42,1050.00 727.46,1020.00 727.46,960.00" fill="#0A0A0A" fill-opacity="0.091" stroke="rgba(255,255,255,0.07)" stroke-width="1" vector-effect="non-scaling-stroke"></polygon>
<polygon points="883.35,930.00 935.31,960.00 935.31,1020.00 883.35,1050.00 831.38,1020.00 831.38,960.00" fill="#0A0A0A" fill-opacity="0.066" stroke="rgba(255,255,255,0.07)" stroke-width="1" vector-effect="non-scaling-stroke"></polygon>
<polygon points="987.27,930.00 1039.23,960.00 1039.23,1020.00 987.27,1050.00 935.31,1020.00 935.31,960.00" fill="#0A0A0A" fill-opacity="0.036" stroke="rgba(255,255,255,0.07)" stroke-width="1" vector-effect="non-scaling-stroke"></polygon>
<polygon points="-103.92,1020.00 -51.96,1050.00 -51.96,1110.00 -103.92,1140.00 -155.88,1110.00 -155.88,1050.00" fill="#0A0A0A" fill-opacity="1.000" stroke="rgba(255,255,255,0.07)" stroke-width="1" vector-effect="non-scaling-stroke"></polygon>
<polygon points="0.00,1020.00 51.96,1050.00 51.96,1110.00 0.00,1140.00 -51.96,1110.00 -51.96,1050.00" fill="#0A0A0A" fill-opacity="1.000" stroke="rgba(255,255,255,0.07)" stroke-width="1" vector-effect="non-scaling-stroke"></polygon>
<polygon points="103.92,1020.00 155.88,1050.00 155.88,1110.00 103.92,1140.00 51.96,1110.00 51.96,1050.00" fill="#0A0A0A" fill-opacity="1.000" stroke="rgba(255,255,255,0.07)" stroke-width="1" vector-effect="non-scaling-stroke"></polygon>
<polygon points="207.85,1020.00 259.81,1050.00 259.81,1110.00 207.85,1140.00 155.88,1110.00 155.88,1050.00" fill="#0A0A0A" fill-opacity="1.000" stroke="rgba(255,255,255,0.07)" stroke-width="1" vector-effect="non-scaling-stroke"></polygon>
<polygon points="311.77,1020.00 363.73,1050.00 363.73,1110.00 311.77,1140.00 259.81,1110.00 259.81,1050.00" fill="#0A0A0A" fill-opacity="0.991" stroke="rgba(255,255,255,0.07)" stroke-width="1" vector-effect="non-scaling-stroke"></polygon>
<polygon points="415.69,1020.00 467.65,1050.00 467.65,1110.00 415.69,1140.00 363.73,1110.00 363.73,1050.00" fill="#0A0A0A" fill-opacity="0.758" stroke="rgba(255,255,255,0.07)" stroke-width="1" vector-effect="non-scaling-stroke"></polygon>
<polygon points="519.62,1020.00 571.58,1050.00 571.58,1110.00 519.62,1140.00 467.65,1110.00 467.65,1050.00" fill="#0A0A0A" fill-opacity="0.540" stroke="rgba(255,255,255,0.07)" stroke-width="1" vector-effect="non-scaling-stroke"></polygon>
<polygon points="623.54,1020.00 675.50,1050.00 675.50,1110.00 623.54,1140.00 571.58,1110.00 571.58,1050.00" fill="#0A0A0A" fill-opacity="0.340" stroke="rgba(255,255,255,0.07)" stroke-width="1" vector-effect="non-scaling-stroke"></polygon>
<polygon points="727.46,1020.00 779.42,1050.00 779.42,1110.00 727.46,1140.00 675.50,1110.00 675.50,1050.00" fill="#0A0A0A" fill-opacity="0.166" stroke="rgba(255,255,255,0.07)" stroke-width="1" vector-effect="non-scaling-stroke"></polygon>
<polygon points="831.38,1020.00 883.35,1050.00 883.35,1110.00 831.38,1140.00 779.42,1110.00 779.42,1050.00" fill="#0A0A0A" fill-opacity="0.029" stroke="rgba(255,255,255,0.07)" stroke-width="1" vector-effect="non-scaling-stroke"></polygon>
</g>
</svg>